<mxfile host="app.diagrams.net" modified="2023-07-04T10:48:37.239Z" agent="Mozilla/5.0 (Windows NT 10.0; Win64; x64) AppleWebKit/537.36 (KHTML, like Gecko) Chrome/114.0.0.0 Safari/537.36" etag="NZvsckCIxZWXqLUFusOk" version="21.5.2" type="device">
  <diagram name="Page-1" id="Roo8WU7OYwoPzhITQM9q">
    <mxGraphModel dx="1843" dy="1290" grid="0" gridSize="10" guides="1" tooltips="1" connect="1" arrows="1" fold="1" page="0" pageScale="1" pageWidth="850" pageHeight="1100" math="0" shadow="0">
      <root>
        <mxCell id="0" />
        <mxCell id="1" parent="0" />
        <mxCell id="MzRc8gYMZVFR7yNTZhZL-5" style="edgeStyle=none;curved=1;rounded=0;orthogonalLoop=1;jettySize=auto;html=1;exitX=0.5;exitY=1;exitDx=0;exitDy=0;entryX=0.5;entryY=0;entryDx=0;entryDy=0;fontSize=12;startSize=8;endSize=8;" edge="1" parent="1" source="MzRc8gYMZVFR7yNTZhZL-1">
          <mxGeometry relative="1" as="geometry">
            <mxPoint x="223" y="215" as="targetPoint" />
          </mxGeometry>
        </mxCell>
        <mxCell id="MzRc8gYMZVFR7yNTZhZL-1" value="an object in array" style="rounded=1;whiteSpace=wrap;html=1;fontSize=16;" vertex="1" parent="1">
          <mxGeometry x="163" y="82" width="120" height="60" as="geometry" />
        </mxCell>
        <mxCell id="MzRc8gYMZVFR7yNTZhZL-8" style="edgeStyle=none;curved=1;rounded=0;orthogonalLoop=1;jettySize=auto;html=1;exitX=0.25;exitY=1;exitDx=0;exitDy=0;fontSize=12;startSize=8;endSize=8;" edge="1" parent="1" target="MzRc8gYMZVFR7yNTZhZL-7">
          <mxGeometry relative="1" as="geometry">
            <mxPoint x="192.99999999999977" y="275" as="sourcePoint" />
          </mxGeometry>
        </mxCell>
        <mxCell id="MzRc8gYMZVFR7yNTZhZL-9" style="edgeStyle=none;curved=1;rounded=0;orthogonalLoop=1;jettySize=auto;html=1;exitX=0.75;exitY=1;exitDx=0;exitDy=0;entryX=0.25;entryY=0;entryDx=0;entryDy=0;fontSize=12;startSize=8;endSize=8;" edge="1" parent="1" target="MzRc8gYMZVFR7yNTZhZL-6">
          <mxGeometry relative="1" as="geometry">
            <mxPoint x="253" y="275" as="sourcePoint" />
          </mxGeometry>
        </mxCell>
        <mxCell id="MzRc8gYMZVFR7yNTZhZL-15" style="edgeStyle=none;curved=1;rounded=0;orthogonalLoop=1;jettySize=auto;html=1;exitX=0.5;exitY=1;exitDx=0;exitDy=0;fontSize=12;startSize=8;endSize=8;" edge="1" parent="1" source="MzRc8gYMZVFR7yNTZhZL-6" target="MzRc8gYMZVFR7yNTZhZL-13">
          <mxGeometry relative="1" as="geometry" />
        </mxCell>
        <mxCell id="MzRc8gYMZVFR7yNTZhZL-6" value="location" style="rounded=1;whiteSpace=wrap;html=1;fontSize=16;" vertex="1" parent="1">
          <mxGeometry x="308" y="323" width="120" height="60" as="geometry" />
        </mxCell>
        <mxCell id="MzRc8gYMZVFR7yNTZhZL-14" style="edgeStyle=none;curved=1;rounded=0;orthogonalLoop=1;jettySize=auto;html=1;exitX=0.5;exitY=1;exitDx=0;exitDy=0;fontSize=12;startSize=8;endSize=8;" edge="1" parent="1" source="MzRc8gYMZVFR7yNTZhZL-7">
          <mxGeometry relative="1" as="geometry">
            <mxPoint x="93" y="446.79998779296875" as="targetPoint" />
          </mxGeometry>
        </mxCell>
        <mxCell id="MzRc8gYMZVFR7yNTZhZL-7" value="name" style="rounded=1;whiteSpace=wrap;html=1;fontSize=16;" vertex="1" parent="1">
          <mxGeometry x="33" y="332" width="120" height="60" as="geometry" />
        </mxCell>
        <mxCell id="MzRc8gYMZVFR7yNTZhZL-11" style="edgeStyle=none;curved=1;rounded=0;orthogonalLoop=1;jettySize=auto;html=1;exitX=0.5;exitY=1;exitDx=0;exitDy=0;entryX=0.5;entryY=0;entryDx=0;entryDy=0;fontSize=12;startSize=8;endSize=8;" edge="1" parent="1" source="MzRc8gYMZVFR7yNTZhZL-10" target="MzRc8gYMZVFR7yNTZhZL-1">
          <mxGeometry relative="1" as="geometry" />
        </mxCell>
        <mxCell id="MzRc8gYMZVFR7yNTZhZL-10" value="tracks" style="rounded=1;whiteSpace=wrap;html=1;fontSize=16;" vertex="1" parent="1">
          <mxGeometry x="166" y="-43" width="120" height="60" as="geometry" />
        </mxCell>
        <mxCell id="MzRc8gYMZVFR7yNTZhZL-12" value="array" style="rounded=1;whiteSpace=wrap;html=1;fontSize=16;" vertex="1" parent="1">
          <mxGeometry x="33" y="448" width="120" height="60" as="geometry" />
        </mxCell>
        <mxCell id="MzRc8gYMZVFR7yNTZhZL-13" value="" style="rounded=1;whiteSpace=wrap;html=1;fontSize=16;" vertex="1" parent="1">
          <mxGeometry x="308" y="459" width="120" height="60" as="geometry" />
        </mxCell>
        <mxCell id="MzRc8gYMZVFR7yNTZhZL-18" value="" style="rounded=1;whiteSpace=wrap;html=1;fontSize=16;" vertex="1" parent="1">
          <mxGeometry x="494" y="456" width="120" height="60" as="geometry" />
        </mxCell>
        <mxCell id="MzRc8gYMZVFR7yNTZhZL-54" value="" style="shape=stencil(nVrLchw3DPyavbIIPsGz4/yHqyxHW1Eklyzn8fcBs8XZYXOmZee2kgANCaAbDcxe4odvj5++PlyC//b2+vL7w1/Xz2+Pl/jLJYTr8+PD6/XNPl3ix0v88OXl9eG315fvz59vP3/91C37pz9e/uz/4e+bX3Reu1Pw/9x+EarT9N9vfr3ZP12fZ/s02cfsgjB7aZN9Cq5VZp/DbK8ueWav8/lzcjWe2ycX8mRfxKXM7Ot8nmLxIee3aJTJvkZXCrPX+TxVaTzLOO2w1+A8iU91ZY6/VhrP5qJM9s3iE87txR4/B6htJXLsUFzxs0NwqZ07BH/g4JlDdqngHQq5QxQX6uzgXWMg2DCycxDikJLTOUraBjCOyyIgLlWdkDrNDaOkxTXyhGJ5iLNDdpVUqhUyZFqTi+TSVsl1jpLVaiHYUQM/XNpyT55gtZzn6u7oIQ6WJoBzzS6SsFoxy4yHumXm2CG5PIe1qFMC6JZdmxNnjFTYkQpSTK4UouaQ5ydYdTV2pIJ5MBKO/AmAuBRpLZmDQBtptJYsSmVOnPUdz45kiJuPFC33PNM6k0DgADIWAsRZM0osrOI8PMFTqjSOAF4y8mS8ZHgIc5QkUV4yBLcZQCKukjt0BEN/cJVB2qNe4ACtdgNA9ADgsb1R0JzmMmJ2bC9O5pBm2s6t21f5GXurogbnESYX2iC4uz0Df85OgMBcInIne4ynuszkjtEhNNvRuY7t/ehKuwIK5AFxuYBsODp28IMYNodIgWwZajN7CZeEIWBNSKZ9ShS5xXCZuObBJxSqgu2KDRyqi4SMxC+XVufJpXWhlkb51OoayE5GVznT/QntC0sC9iizZ2Qqrs1t1rhUSceRoTF/kHtl0NQPxkdwzrGENXJfQd6yimDEIihcrEYbQ8FyfptMiG4J2P0MNEwjRJQ5Zq+kQK0PleU8dE6DucXslZw/Y2+1eFZqD3Og5UsZkY7T7vDF8rs21kbzZbJx0QZK8JWcn/tSryhy3+hiRXuOx7r8/0ztZcEv08mCei54KgAF+5LFk93X8LjwYSTxlIGOXT2wOVxQIlu9sXq2qWGp/0TwHoYM2OORDb0/ab/Jhl0bpjMB6hSzT4xvlwG2O7CAbny2c6AVoUsKAp2pLWe6aJVKnhA2GbA5bG32TKt4VE+NBCluwuSuzpi0sSEJ7OtY15yuHWYWyvTCqaF9omq679qAVWgTMLUbIQNUmZVtdzbsPVWjptYX+8CWYzJ2YXd7ukxLI513ezYXV11036ClY1G2sBwHmY1vsApIdLqy+dDjtJHZ/2/rtMdUqE24EJ8u7vm2BGmxUFpvedGhfnS2Y4eKjbtLC7Zp2FYdm0Mbve3YoeFEE+NY6Zw5AFdHHeruzAHEboo0b+IXIko6BMbZI3R+RI50K2sOCRbv7+yIdKwuttqLzrOFjI4/71bvtJgKapbKlxltEZk1U7xZfcPe1xDO3paoIuEpbzmacG7qGCeXrm1xKBSjNeI83TfL5Eil4CsWbXxH0Q6246xt5rC8dAhjbXG2pQDaaNt7o+PGqeONweaQaB6iDIBtDpnqo7AQkzEPo42uj+HSOtj8GNR1DPSbQ6Pdv+9JQCB53t/a2GLsn8BKAyF9h+DJEJXBPtIXM2koxl3lsfNEbOcaBzefiGZoV4Ym+mYJX0729SMriqXd6jtLDSi6IrSTCHaevh4kLO/xhYx1BTYkexzyre8wPbWprd2Sng1dS5cKfGmyLJO7/iX59bh0sIplqPfLkFzGQv3EHoaizgIkvx63eh0RtB5iRHv2tsp6i1/s2YCDNNpfndIlUWxoT1exOD/1bTi1h/HjnW14REYMlQ7h/+PLDu/Y24f7Nyu+XJ+ebl/M2P8dv4lhv7p9iyN+/Bc=);lineShape=1;fontSize=16;" vertex="1" parent="1">
          <mxGeometry x="506.4949558188132" y="166.3835410360964" width="162.7075775238349" height="98.0223356489702" as="geometry" />
        </mxCell>
        <mxCell id="MzRc8gYMZVFR7yNTZhZL-55" value="" style="shape=stencil(lVpJchw3EHzNXBEo7DjL8j8UIcpkmBYVFOXl906YRnOQ6EmGblwqp4Gqyqyl5xI/fL//9O3uEvz3l+en3+/+evj8cn+Jv1xCePh6f/f88IKfLvHjJX748vR899vz04+vn19///ZpWI6f/nj6c3zC36+44FIZoOD/+f8PwXn/319+fbV/fPi62IfVPkZXTNlbWuxTdCHKz4+rfXexKPvUFvtcXA7Kvq/nL9Glftset8urfXdN+Ce5sp6nZpeEf4rz6+c376Kwr67Zap9mBE/tzTu/OrTVeaVzQOAbdJxI3Niyq3UFBA3o0yMHIM6onMcMIaInZGdVAKrrngE9iSgHl9e06MUFlRbVxcSAKI6UDlpdAawJQNmOBEeLI2XvWmeAF0fKafNScl7EIbeZ+leRrgJQkEt0JBxSXLrg0mvyteaKeEJFboYVUKbinAMSx6FFlwUfanWZCIQ7CLeOf6+pUdsUzXNAnJ93pRlVaCSuWFYC1eiicCucSBSt5pKgKMKUV7dC9opIPjDYEwChFDqGVMskrEG6Fclc1jjkKr00+LVGGgkfRWoAQLUQlCoaQMUBpK3KrVt6QxaycmuZSnqU2za18JaX2hqHmGT9GUq6ujV6yQcELqzpDbU1BYj8BOh5UwCbonIAvKuipiNbbZUZqzIO4ENe74AiFsQTBuNWAqFMdsW4NDPnAHhZgVpgxnUtGn7Wp4PS0qmQsb7eoMhqAgnKbO+Fh+rWWEHDxH2hJ72xvTj/kJPtPKqvCix5ZfY1t2pbJk2VgpeRw1SenYnzpOb6qhVICBUA9Mltpc3ozAT141adLenWNrFmG5oe4SNcsW4866r5R4wI0Ge9PgcEzgpQX10a/06kRjYDf958Qj/XSwftVjvy8kq+FPVt6/SQ2lkBjFMPAFV3APCJAaqcm2c1wpyiAgdA3AAmcgkAa+wlVWwHoHIckgZQp4dIq9o5Lk0A3bgNt24ANXsCkDoDlAgAQCI8AHoYS5EBqv4DQCIAL3n1hDhb/itAExQFYA+cUsoBILdGHTiIAAF0D2NHE3XFBzX5AGCFAVkRyHgoHhRVbjVuScYTNOO46cmzf70FYCGDl9SR0DEYx0HKjN+8FGRNH0/Yc0kvJ1j5bFaMW4C2EeidwMWNQKY5/ZOAzF5CiVHbjFEzN0AQgcMBqKCM9lZXUW5vyxSec0DmOR23aiLS6AQiAZKsQGNLSL1GkHcYcw5d2stcQr9EfDg6rlsNGTkJPhLjZN6WUO9sVxrnRdSLwDDZeySeFO5y7JumvZ/rnJsNt5G9yroaZyl7s1eL4bqN214uemub0/sR4NnVnA88trUkLqgZL3IljHLAGHujNaV1E9Ya54PuhTGk0v5iqJ/aX2w7SdOr6p7YQ4P2ah2RWYlGty041itv51FzstqQtK0iNFk3e+d9eIyypQKAan/U4tg3HqQgl2fmN/1N8INawnSePTOGEvEIAKjoZL2vhl9pKMldjj2IHPl16Id6QuKNR/VzIL21tSmrl6AgKvtaZwGoWR6p1Y1xVe4A2n6HLpfDzTiZxl9EMo3N7ko5PNOLSNftSO2dPYznkQF+U5W2VH7jhsioebVsDf1Y8anXAJ0XeuNliThS3lokpKOSDdCFhhIkvBqh07aJfaPUOSDwCD1IKy49XviwfOuCGANPh73LQKCAVNvOpN7Fxs2vXRJidKaBA6E4ijbQ05GK9OvYZVAg0hz/zim32Zve622vb7QGHHQ87IOsJ2GTjDI71/ML82YFhFWpfWyBDx2GSgr+e260c5lvgG/YE3NSl1PhXtuifC3peUeC+qwU0vMGEB5TbZLfXhbY9MANe34bodtgz++e31monC2RTBDgeL95tfFsaqLdpscuWwXjKcG6rB82m6ErezXmnG6olGhtez+d/2Hr4r0WxZP9btL2P/l9lvfs8cPbl2e+PDw+vn735vr//GUb/On1izrx478=);lineShape=1;fontSize=16;" vertex="1" parent="1">
          <mxGeometry x="687.1451802407073" y="152.80980800274187" width="190.02671988580525" height="103.01786478966685" as="geometry" />
        </mxCell>
        <mxCell id="MzRc8gYMZVFR7yNTZhZL-57" value="" style="shape=stencil(lVrZchw3DPwavaJIguez4/yHqyxHqiiWS1auvw+YLXKHzZ3e0tseAIcEGkADnAf99PPpy4/Hh+B+vr+9/v749/PX96cH/eUhhOfvT49vz+/26UE/P+inb69vj7+9vf75/evl+48vXbJ/+uP1r77CPxe9KLF1peD+vfwQVJr7/5dfL/Ivz98P8irZL/KaJRP5IK0u8jFLCUy+pEU+qbjI5JNb5LOTUJh8XNfPRTyVT+v+i+2n0vOGVb7S/avEdf0axLdz+TR2O+XLsNhN+SJVF/nmpBJ/+SAurwpBKjGQj1LXEzSV5IlCFZ9RoTGT2pZWn7UoyjCXJeRNgWxJnZSICl6JQpJY8AyVuDk60bZZiZwh2hMiKjAgJSdpRZ45LjMkJUkJFZT4oUeWooJnCnEA4aDgiB9yFYUzeCnESsVjOjIFFv7FgPCheCgZE0abrryt0ERX8NUmhWCpB/z6hFrHqW4rRGmgUMSRQ/cUsZq1L0Gw1He8mtU2WUnW7laHNNloWjUgQMRZXmV+uIbLVHDiyRksggGtOYtjZ7BEBqXB00TW0giXWat4bTOFsmaN5KVmqtDWrBGLBPaEPNLWVLACxvxgqXI1q9ZRAE4VViypeeaOwrql0Ljj8kgqU8HQyvyQsWQFR+HdtsznJw06xdIaD95JZk/wWzIeme0s4NzqhkrXr2n8PaOBAqnOrDixLY2lyc2kEye35R0mvTQMcFYZQJ67ONVBiq7ybP0UtjgYKLxdbTPSqkhZnpVzoG1xOPCML2hCecYK3Yipq/wdxuMjyGfGasMoGFd/ORIAxtngvAZAYk+fJKz+ytT+fqP9mUbwNfyu+Gdcx/6FmiyV8UFkFfa8Skj2ZGYHebb9gE1XPw/Z/mRNB3mWQo0VAWcRpeJAcSrlgSauYHslxvGjP7y6Vkmq8tLW1XkmCcir42jAztozzAuMam2kI1LYR8RBHPX7RPxDQRWlYEyxohXxqOWOeF1Xr9TuESOqjY7oRDxsiA+0LS6bPGtzFUlGj0AiH0Z6PEY4AULAntW7OyguGIE0XyLO6iDgZxG4sgue/TYykiXT+K7rZoy20okHEEJeSjbiH+lmPiheBqomOxXPDLm1tIH7aRsfBV7X0nj8xA0fplRsT/2YP922jh915irPwso8DxnK0b7OeAhUKjegd8pzFOSZ/eON9dmAoPO0TZ7wos4DC8oTfxnPDAn3T9KI8diI67NBU9l4o6P1x3g4NB6OjpmM58N+PLWP9REtozybJDRMJZ7Wfmvz4byzvJ81Wg3jl/Fka/0q8urK1m+D1h/yeGS9ZRuZdSpkPqdooxE7NKOJ9ZYNXdALPUvPzmGzGO4MWxqOEaxnzySMu8IKI60DiKcKKy5i4D17wyITC52StVlAZ5mZpeFMQdfQSYWOmVsdqXmWSaVDYFNQYLZ3rFSQCpfAwZSRBpXC42G20ZNI6OB1ZwGKtO/OGTxWkD4PJSmgr7dCoycFNqtIeGXUJhu8raCDuh2m9+xOyrIkzEOb1Wk23mh4C2QKkU+NwdNdgSX6rRfoCgR85dYZEoGGYTNuW2Izgj69z6jAhkz9fgDuODKtJilhTJsCG5MlN9LWQYHdD8Q0pp9TodDO2QgJXlkUmmaM8SA0Kr2BUIclq/FhRO+XQYG3831cEFCBsTxfNhbgOK/yG++xR7D+zHskVqbgyZ7qdu1S6L10HqsdkBHIhuJoUg5J5s7IBtzs6H48EuFaKDN32JBWpZ3F1riUSi8rJu+d8krvmTeO0e/Jib+29S0bOGJ/h0P+Xs7p/gEP1goEUs0dFkLluchjsjPmqbRjhwFk71QpHoDvhEDJRUB7Xp94NgcLKM/fg4ARYWf+7MYbR5CBD1gUB/x9fYIfRZ59p5NVpLTXOePZAErR/gwPEatltxgrHDfeowmkWH70vZv78vbh+pLPt+eXl8s7Qsf/8aUg++nyQpF+/g8=);lineShape=1;fontSize=16;" vertex="1" parent="1">
          <mxGeometry x="907.2305145585024" y="143.83701371042912" width="171.85012030189813" height="95.0579046305206" as="geometry" />
        </mxCell>
        <mxCell id="MzRc8gYMZVFR7yNTZhZL-58" value="" style="shape=stencil(lVnLctw4DPyaubJIgs+zk/0PV8VZT61jpxxnd/P3ae0sNcOW1C7f5DEgProBNKCT3f14vP/+cIr+x9vry18P/5y/vD2e7NMpxvPz48Pr+Q1PJ/t8sruvL68Pf76+/Hz+cvn7+/1iuTx9e/l7ecO/F7/SXaiLV/S//v/F9fjfD39c7J/Oz7f22UXP9l7Ye5fLZF9d6Mf2ufB+quvKPjifJvvuajq2T82F2T6sb9h3yC7MBwhRrxBcy7NDck04WHNms0N1UWBgyVVy6K4JECy4ECeHGF2yYwdceptRiEnCELPz86HxiiTOEL1rfXKw6LzYUmhMPCuuikOH4mKYHIBMqcJhc60JXM3CIY5QGQ7ZXBW3tFBt5hLCo7Rjh21wtoHkrn3jI9cwrnk/Op3NINQ2gN+PNj5wM2m/2U8DsRTIuNHZoXtXiwS5zjfUQSNF1OByZIcujgAeR1rBnAkHy+N9NytEQaNUmBU4dBS3hByZM19rDQLm4sq8QksSt5pHxlodQCRB1IUHjZmk6sgV19WhjMy871BG3VgdzCVBjZ5GYVqDR5cSwBTIwY+McHQGYuuCjMChdb6lHEdW23fAJc5Io36pLAki2Ey+tOacfQeQb5NW1S0B6T6fAYk7q5yErDuvgJBSBbSiglMtMXmtoJqft4R6mNQK2RUq0Tau4cjBaAWcSuAAh0Qr+JELDyOOYlrqqrrJATqz1jqC5UaH6TvNrPOaQBmg0X7eoZEfkF73U1QkBE7D2KBKSIHzS5ciDPZU2oBw1A6VhGR0RTtEUm2mc6pnyBYhKQoJMEhzigxZyjyAnIwdsqoLYJFnB1XbQFPeUtKxnAfNbm5JCcmaN2fQCmCJZdqSFmFLtpiDvztTO4LwnBdoUkbiUqklQRJXob++7iY0FWidVVh5j3esIp2J/YPYnlNXfKcgGN1n0qH/MfvE9uinVBigBnJ7FHRJq6ynrv3PYeGnKuuH2NiXFoG1iJmM/R5Z11qXrOvGBScV2ZlDT9Ghs5c87ZlLSE6SSL1yTShQnSJZ9M45GP2RFw7Be5Y7VefUvsbi6lBl9AM5yhaIJwUE6EpyBxJLkQn5pZA4L2NGsS//K2c88NFEqcqVSxXopQQVqFPmFQC+4gZEZqKcWuUIY6cN61IAIIQ9ZYEr+PvkAF8TL1Ekm0bXtTq0oRMP2m2S/2hqkkDahoRa7ZPzaoKxKVReijAkemoL6xhFHdhz8HQZPGEgtNpHaW8seEqWACSXNvlC9sEjcm8TkhKpmwlSlUoBhCDOoftS8ghShRCwPEY+RxylIyxiRDmAwuSQ5LwzxiF7b4uhcsgbXdtlj7oo9zmUQ5FhgwaTZ7Y2TnU0gqFyu4SqABq1kjOkhCFt5lRZvh/5kUa8elCYOlfzKFHOm/50HbsfTeUpcnRq3E79vewet18V/GjRj+xr5/crSQ7lUcg+KQnseZ6NxKgGBAhb6vflfcKeKB1HD3BkT5XDdM+yY6+ma9v9QGRoezpvloVpe59FTpm2eBWXRYrY8kFPHz78FetdezxcP5l9PT89Xb643f6fP7Hhp8vnOfv8Gw==);lineShape=1;fontSize=16;" vertex="1" parent="1">
          <mxGeometry x="393.66473350457" y="187.12638977137203" width="120.47342980867663" height="90.19441272300064" as="geometry" />
        </mxCell>
        <mxCell id="MzRc8gYMZVFR7yNTZhZL-59" value="" style="shape=stencil(fZbdcgIhDIWfZm8zQAg/17Z9j85U606tdqz9e/tmZ0c0uJ47xP0I5JwEBl59bp8/1kNwn6fj4W39M76ctgM/DCGM++36OJ50NPDjwKvN4bh+PR6+9i/z74/n6ctp9H74nlb4nbmSKZeJCu5vngmZ6jzzNAO7cX8FVKEsBuBKrgKg9oAE8gkCbLeUhEoEQKSUDZDLeWYRKIl8MEDRmHwfyBrBG6Amyu4+kDxxMoB3jhwgYu7TVAsVkFcWCs4CTBEoF4RctKeOxHIf8IXYpikHikAIf+MNUW94AGSSaoAoFIE3AlOyeWU+p2E5S9yfQZcQILVuQOwZdJNoS9Ls3wA5u2XZTIHECqeJ9kDpSaauRiNVcAY1QhdBzeLBli5WazpkSsBLV25uRaqWRyFawTQzRRIQYirJzq5atkBqLfouwqUxLBepthWb10vrWZY6UOAeyKCCtDV625mm9gmUC4Wc3VLJMMIE1BsA2FW9JraVlQB7n3c9oMKhCLEvIM1zBPZ25/umNQ1tVEC2G+fFCC8g398O2hNQuQlVu752DBfA+q0ptnqO5JFmeuIuo9DY7KjY71UxdJV4EntifPWorW++R/dC4t7V3DlIB5cHx2bc7eb3yvX//QNFp+bHDT/+Aw==);lineShape=1;fontSize=16;" vertex="1" parent="1">
          <mxGeometry x="473.954316968046" y="291.2504463693135" width="6.67505681730745" height="6.664623166224634" as="geometry" />
        </mxCell>
        <mxCell id="MzRc8gYMZVFR7yNTZhZL-60" value="" style="shape=stencil(fZbdcgIhDIWfZm8zQAg/17Z9j85U606tdqz9e/tmZ0c0uJ47xP0I5JwEBl59bp8/1kNwn6fj4W39M76ctgM/DCGM++36OJ50NPDjwKvN4bh+PR6+9i/z74/n6ctp9H74nlb4nbmSKZeJCu5vngmZ6jzzNAO7cX8FVKEsBuBKrgKg9oAE8gkCbLeUhEoEQKSUDZDLeWYRKIl8MEDRmHwfyBrBG6Amyu4+kDxxMoB3jhwgYu7TVAsVkFcWCs4CTBEoF4RctKeOxHIf8IXYpikHikAIf+MNUW94AGSSaoAoFIE3AlOyeWU+p2E5S9yfQZcQILVuQOwZdJNoS9Ls3wA5u2XZTIHECqeJ9kDpSaauRiNVcAY1QhdBzeLBli5WazpkSsBLV25uRaqWRyFawTQzRRIQYirJzq5atkBqLfouwqUxLBepthWb10vrWZY6UOAeyKCCtDV625mm9gmUC4Wc3VLJMMIE1BsA2FW9JraVlQB7n3c9oMKhCLEvIM1zBPZ25/umNQ1tVEC2G+fFCC8g398O2hNQuQlVu752DBfA+q0ptnqO5JFmeuIuo9DY7KjY71UxdJV4EntifPWorW++R/dC4t7V3DlIB5cHx2bc7eb3yvX//QNFp+bHDT/+Aw==);lineShape=1;fontSize=16;" vertex="1" parent="1">
          <mxGeometry x="672.8113900707244" y="291.2504463693135" width="6.67505681730745" height="6.664623166224634" as="geometry" />
        </mxCell>
        <mxCell id="MzRc8gYMZVFR7yNTZhZL-61" value="" style="shape=stencil(jVbLciIxDPyauXbZkp9nNvsfqQoJU8tCipBN8vexa8pZZIOY22DUtlrdkj3x5m33+LqdyLydT8c/24/56byb+NdENB9229N8Ll8TP0y8eT6eti+n4/vhafn9+lgj69ff47+6w+eCIwvLFUXma1mxyMvC7yV+Px8u4mNEyiLewJjb8ckhBxFPCHQ7PluQ3N8akHJADiCSBxQGTgFkkGTMAUGhbM0PxYbwhGiVIxKcJB0SvAZwiBKQCByVsmawTCkTksK67Be8BCQkTWgPJ4UohdNIV4odwIOTAigpdaRDY3UV4BNYSh0ZTknJBxgnhUswSkojwBUz3UlJmokCvCLcSNoyQlbLGqTSTm2gopuX8aZ11EpjlIlwx3lWigAbdGtHuX9E0PpzaB62jdLa/nSxJXlzBEgjBQYrRapDpiNdjKRUqY6xJL2dkZSU6pzs+jOqKdVBLE+4qMPK0X0PMV4OWadth/4plQsaoNSpAxC8YqcII5VLHlnp6NJcnXBRnTG2vxxCbJSuxo9Xg0dUZBut6tTrbciHqRllHd9632o26utpXVtZKViEU+ozOoLbxFxpOf09cj++fPx//DzP+/3ydrr8v38slaXlocUP3w==);lineShape=1;fontSize=16;" vertex="1" parent="1">
          <mxGeometry x="813.5830043927185" y="287.8753374664316" width="13.466304198377982" height="5.963628220038768" as="geometry" />
        </mxCell>
        <mxCell id="MzRc8gYMZVFR7yNTZhZL-62" value="" style="shape=stencil(lVbLbhsxDPyavQ5EUdTjnKT/YSBOvahjB47TNn8fLha7NWWbaG6yzFlxZkhKAz+87zZv2yGG9/Pp+Gv7Z3w+7wZ+HGIcD7vtaTzrauCngR9ejqftz9Px4/A8/37bTJHT6vX4e/rC3xlHFbFNqBg+552YUOedHzNgPx4uAKlB2AASYr4fnwM4mfiAWO7HF0Lu48XJp8blc0u8gOr9+EYgMvHEECehVhDTlUIOYwoBIRgEF1fT1kDRciBEj0RCrgaQGZkdlQpIDKAowCFRCtimVNVIcnzOiB0gojocRBCsEXW15nblrbKvHHyrOaNa57KgOCcwoVhZRVVyjOPQk06qkgeIvaxRnfEApSdNguSQTuqDdTq78ZKXwlkPADmVlAuaLe612m8XUl2qYG0GRCe+VqQun4DkAJpALGHNqIrbbanLiJGSC6idy1pZ3sjI/YyUhhId0g2tK+2A7HDQZix2bKvO4p2gmoTvAFLtJ4YKXT1AWMboCmgITiVpL0hX2sGvJR28Ylm36k4xKv1gVRLknEChP0GtEWdkCNiSnu4jh7ROGBs/zWGnPa+ukpzADuMAsppKWoy/LWl/uSVxb8PcC8r+/CKCdM22pngb8N0HyX8AdPHv/fMy7vfz8+ny//69pFvzW4ufvgA=);lineShape=1;fontSize=16;" vertex="1" parent="1">
          <mxGeometry x="913.12420516052" y="276.3899064150796" width="8.227392079883366" height="6.927956315448358" as="geometry" />
        </mxCell>
        <mxCell id="MzRc8gYMZVFR7yNTZhZL-63" value="" style="shape=stencil(fZbdcgIhDIWfZm8zQAg/17Z9j85U606tdqz9e/tmZ0c0uJ47xP0I5JwEBl59bp8/1kNwn6fj4W39M76ctgM/DCGM++36OJ50NPDjwKvN4bh+PR6+9i/z74/n6ctp9H74nlb4nbmSKZeJCu5vngmZ6jzzNAO7cX8FVKEsBuBKrgKg9oAE8gkCbLeUhEoEQKSUDZDLeWYRKIl8MEDRmHwfyBrBG6Amyu4+kDxxMoB3jhwgYu7TVAsVkFcWCs4CTBEoF4RctKeOxHIf8IXYpikHikAIf+MNUW94AGSSaoAoFIE3AlOyeWU+p2E5S9yfQZcQILVuQOwZdJNoS9Ls3wA5u2XZTIHECqeJ9kDpSaauRiNVcAY1QhdBzeLBli5WazpkSsBLV25uRaqWRyFawTQzRRIQYirJzq5atkBqLfouwqUxLBepthWb10vrWZY6UOAeyKCCtDV625mm9gmUC4Wc3VLJMMIE1BsA2FW9JraVlQB7n3c9oMKhCLEvIM1zBPZ25/umNQ1tVEC2G+fFCC8g398O2hNQuQlVu752DBfA+q0ptnqO5JFmeuIuo9DY7KjY71UxdJV4EntifPWorW++R/dC4t7V3DlIB5cHx2bc7eb3yvX//QNFp+bHDT/+Aw==);lineShape=1;fontSize=16;" vertex="1" parent="1">
          <mxGeometry x="1016.8114598251891" y="267.25046380792946" width="6.67505681730745" height="6.664623166224634" as="geometry" />
        </mxCell>
        <mxCell id="MzRc8gYMZVFR7yNTZhZL-64" value="" style="shape=stencil(lVjbctpADP0aXjXa1d70nKb/kZmQwpSGDKG3v69cZoGV8Ql5M0bH1u2clbySh/fN09t6Ffn9eNh/X//ePh83K/myinH7ulkftke7WsnjSh5e9of1t8P+5+vz6ffb02Q5Xf3Y/5qe8OeEU6XQJlTkv6c7gZmY/9/6ekLstq/XiEItDAh7RssAkCg6QKOMAJFCHgGVQl0GNKU0BmHvTAUACkUHYMoNACKVNABaJgFZqhbiCLA7CoKuqWf9DAhU4jKgzCpXhEoAgERhdClnYpClfPa4A1KhJAAgVMcYpBGDGFIjqSOAKYG0pkiqAyBa3oBLUqmMLoXWnbwNiL5bg/USaL5ofCgjIFAELsVAVcZeIk3L9qGQjoWulJB9pDrWuVABAVgfRWcuoFFLp+LFPIKuE0rqzAMgGlP1T8+gWsZa8b6D1HPn7JkB1KB5EGfOIJHcO/FMFwogM+wJLx89fSRjJAZdYL6PeQ+d/UuZGXuMoYByV5qLOfbdUYShLJir7MyR1gYS74xC8+T42vmyYO6EPHb63mdumqifcCZRBfSYhZrhGTFLpHEVssmVqfRz9b4mMHPgDHutL1C52R9vGcrSjB6m2tjckw/77qgdezD3CUf4KDO+gQsknxM9htMR9466Ih9sgk+Zz/QdH+DFV5Vhi6mfBBn3e6TmlQMNXaESu+kXktv+bqO9UATaYSe168oMJ18bPtLIkQYPKJtudDy7g3TK356fhMSJX4MFsAmtjW8wYimaAZM/eCyoAlzKOpPAADvO5tjiAIoHX/VjqU22DIK2WTy7kSj3ufM2QH2dq/Q03N4nxA9d9ggkb7axuBha6qqxtBM1t7HUXsqlrcvVwXYiNL9MO9bokoZOv8XN0e11Ns6jyVRnmyPmmwHSDIDSaoCsHoC01wBuuNYEB6tpOa4eUPEb1NUhd429LWI8O8z0vN/ejahQNyanZit5A05dvglcLf1IBqbEjoyYqo8BuXhAwbV2A8gUFWLE57+N3IGwi8vHmJftbnf6lnP9v/94Y7dOH37k8R8=);lineShape=1;fontSize=16;" vertex="1" parent="1">
          <mxGeometry x="292.30539789867225" y="115.11876378890656" width="261.0808743158113" height="62.420269768502166" as="geometry" />
        </mxCell>
        <mxCell id="MzRc8gYMZVFR7yNTZhZL-65" value="" style="shape=stencil(lVfZctswDPwavWJ4k3hO0//ITJzaU9fOOO7194Wq0hYgadO8yTSXxLFYgEN8eNs/ve6G4N6ul/PX3c/D83U/xE9DCIfTfnc5XOVriI9DfHg5X3ZfLufvp+fp9+vTuHP8+nb+MZ7wa8Kxo1hHVHC/pxUfKJa/K58nwPFwmgFqpNosILttQK4UWAMS+bwNSGVxQ6ECTIqNkvYheCoVABxlbVJgimEbEBKFoACxUmoAcAtiB6RECTgdI0WvARXmQc6r2ofsyAOTciGnb8iSyrgNKJI47UNmaiCsVdKkTSqyAsLaEmVt0sguAODaidABrVADTjNTMgDudFwFeOfIOYVgTwwyJ1cYbnDq9NpyImivuRAjr6VeNL+5UfUA4ChFDWCqgEwSRaMCAmCQ6hYoBQtAFVR5Edb6Hpn+1csNkKkiQCanU82RAkhcTcQGILqApK/YPLTWvVoHNMrah5apoYLw1AxdUy/CdUDueb0BIhQmoX+LFoCcliCWbE1Cei9kbprewi4kTLyghoQVaeWdm7MSdcgH7jI0owaSPqkvtyhRj2o6U9A9S46AAN8NmBUQCmurFjCTqnWE+OjsFQV43eS8bJ1IAFBrT+wsTPkdAH8EUGJXxhldfdoG5GSFSco8A0BazDPS9yoIqwwPVd8gRqIbfKOg81Ac1ErRJb0/32xc3b/oWClAtU92f8Tjkgx4puvKfJXwuOTMUOlhS5QJzsgYnpYky7YY4KAhY4VRbkcFlQ7b83GpjSMCm/0e6Yt09GDtQQ1dZjfrL0qA9NasSY1n9HGeMJTo0+WWoEZtv+gf8lf2m8kQz3mN2HSpnsAtfzlpXaGMzi89HHcxhSUgCTOj7cho1KNCJ9jsmQQp8dGH2H8A5OP+7ns5HI/Ts3H+v30nytL0xoyPfwA=);lineShape=1;fontSize=16;" vertex="1" parent="1">
          <mxGeometry x="292.6236167431157" y="101.4402335609202" width="33.415096784082316" height="50.676468252921566" as="geometry" />
        </mxCell>
        <mxCell id="MzRc8gYMZVFR7yNTZhZL-77" value="attribute" style="text;strokeColor=none;fillColor=none;html=1;align=center;verticalAlign=middle;whiteSpace=wrap;rounded=0;fontSize=16;" vertex="1" parent="1">
          <mxGeometry x="551.67" y="190" width="60" height="46.89" as="geometry" />
        </mxCell>
        <mxCell id="MzRc8gYMZVFR7yNTZhZL-78" value="" style="shape=stencil(fZbdcgIhDIWfZm8zQAg/17Z9j85U606tdqz9e/tmZ0c0uJ47xP0I5JwEBl59bp8/1kNwn6fj4W39M76ctgM/DCGM++36OJ50NPDjwKvN4bh+PR6+9i/z74/n6ctp9H74nlb4nbmSKZeJCu5vngmZ6jzzNAO7cX8FVKEsBuBKrgKg9oAE8gkCbLeUhEoEQKSUDZDLeWYRKIl8MEDRmHwfyBrBG6Amyu4+kDxxMoB3jhwgYu7TVAsVkFcWCs4CTBEoF4RctKeOxHIf8IXYpikHikAIf+MNUW94AGSSaoAoFIE3AlOyeWU+p2E5S9yfQZcQILVuQOwZdJNoS9Ls3wA5u2XZTIHECqeJ9kDpSaauRiNVcAY1QhdBzeLBli5WazpkSsBLV25uRaqWRyFawTQzRRIQYirJzq5atkBqLfouwqUxLBepthWb10vrWZY6UOAeyKCCtDV625mm9gmUC4Wc3VLJMMIE1BsA2FW9JraVlQB7n3c9oMKhCLEvIM1zBPZ25/umNQ1tVEC2G+fFCC8g398O2hNQuQlVu752DBfA+q0ptnqO5JFmeuIuo9DY7KjY71UxdJV4EntifPWorW++R/dC4t7V3DlIB5cHx2bc7eb3yvX//QNFp+bHDT/+Aw==);lineShape=1;fontSize=16;" vertex="1" parent="1">
          <mxGeometry x="551.6686375595641" y="292.3933296700948" width="6.67505681730745" height="6.664623166224634" as="geometry" />
        </mxCell>
        <mxCell id="MzRc8gYMZVFR7yNTZhZL-80" style="edgeStyle=none;curved=1;rounded=0;orthogonalLoop=1;jettySize=auto;html=1;exitX=0.5;exitY=1;exitDx=0;exitDy=0;entryX=0.5;entryY=0;entryDx=0;entryDy=0;fontSize=12;startSize=8;endSize=8;" edge="1" parent="1" source="MzRc8gYMZVFR7yNTZhZL-79" target="MzRc8gYMZVFR7yNTZhZL-10">
          <mxGeometry relative="1" as="geometry" />
        </mxCell>
        <mxCell id="MzRc8gYMZVFR7yNTZhZL-79" value="class" style="rounded=1;whiteSpace=wrap;html=1;fontSize=16;" vertex="1" parent="1">
          <mxGeometry x="163" y="-150" width="120" height="60" as="geometry" />
        </mxCell>
      </root>
    </mxGraphModel>
  </diagram>
</mxfile>
